<svg xmlns="http://www.w3.org/2000/svg" viewBox="0 0 48 48">
  <path fill="#064789" d="M24.08 2.95c-5.66 0-10.79.83-14.61 2.23-1.91.7-3.5 1.54-4.7 2.57a5.46 5.46 0 0 0-1.79 3.01c-.06.62-.09 1.17-.09 1.52l-.13 7.87v.5c0 1.25.6 2.37 1.49 3.3a5.57 5.57 0 0 0-1.38 2.6c-.32.95-.26 8.1-.26 9.39v.51c.01 1.48.83 2.78 2.02 3.8a15.05 15.05 0 0 0 4.69 2.57c3.82 1.4 8.95 2.23 14.6 2.23 5.67 0 10.8-.83 14.62-2.23a15 15 0 0 0 4.68-2.57c1.2-1.02 2.02-2.33 2.02-3.81v-.49c-.15-1.3.08-8.57-.26-9.4a5.95 5.95 0 0 0-1.23-2.44 4.92 4.92 0 0 0 1.64-3.46v-.49c-.16-1.3.02-8.84-.27-9.4a6.34 6.34 0 0 0-2.78-3.84 19.95 19.95 0 0 0-5.92-2.4A56.61 56.61 0 0 0 24.1 2.96h-.01zm0 2.54c2.27.03 5.94.3 9.45.98L16.29 9.2l-2.96 7.09 17.58-2.8 2.91-6.97c.67.13 1.33.28 1.97.44 2.05.53 3.9 1.24 5.15 2.07 1.24.81 1.69 1.63 1.77 2.55 0 1.04-.43 1.45-1.2 2.14-.97.83-2.82 1.48-4.04 1.92-.76.27-1.71.58-2.6.8-1.1.28-2.17.45-3.44.64-1.9.29-4.02.41-6.19.46-.83.01-1.55.02-2.27 0-4.7-.11-9.05-.86-12.22-2a15.63 15.63 0 0 1-4-2.02c-.71-.53-1-.83-1.16-1.2a3.03 3.03 0 0 1-.16-.68c.01-.95.55-1.59 1-1.99.85-.73 2.2-1.47 3.9-2.1 3.44-1.26 8.34-2.07 13.75-2.07zm-.36 4.39c.84 0 1.61.1 2.3.3.86.26 1.35.59 1.49 1 .13.4-.14.77-.8 1.09-.67.32-1.54.5-2.63.55a8.86 8.86 0 0 1-2.9-.3c-.86-.25-1.35-.58-1.48-.98-.14-.41.13-.77.8-1.1.66-.32 1.53-.5 2.62-.55l.6-.01zM5.29 15.66c1.14.88 2.48 1.66 4.18 2.28 3.61 1.33 11.04 2.14 13.74 2.17a43.8 43.8 0 0 0 8.58-.51c1.36-.2 2.47-.36 3.69-.66a29.08 29.08 0 0 0 5.53-2.06c.69-.36 1.3-.7 1.85-1.12v4.39c-.37 2.58-3.1 3.77-5.04 4.5-3.44 1.25-8.33 2.07-13.74 2.07s-10.3-.82-13.74-2.07a12.92 12.92 0 0 1-3.9-2.1 3.1 3.1 0 0 1-1.15-2.4zm1.01 9.9c.56.33 1.17.64 1.83.93 3.91 1.76 9.46 2.78 15.8 2.78 2.17 0 4.25-.12 6.2-.35l.19-.02.33-.04c3.03-.38 5.77-1 8.04-1.84 1.11-.4 2.12-.86 3-1.37.59.56.96 1.13 1 1.76l-.03.2v.01c0 .04-.03.08-.04.12-.02.11-.05.25-.1.34-.08.15-.15.28-.25.39a11.8 11.8 0 0 1-2.69 2.03l-.55.25c-.58.26-1.14.51-1.78.73l-.32.1-.15.04c-.38.13-.79.23-1.18.34-.39.11-.76.24-1.18.33l-.39.08c-.9.2-1.84.39-2.83.54l-.45.05c-1 .14-2.03.26-3.09.33-1.4.08-2.54.14-3.76.14l-.64-.02c-4.39-.33-9.02-.78-12.86-2.15-1.65-.6-2.98-1.3-3.86-1.98-.88-.68-1.26-1.3-1.31-1.66l-.06-.34c.03-.5.43-1.09 1.13-1.73zm36.41 5.85v5.03c0 .54-.3 1.17-1.14 1.9-.84.73-2.19 1.47-3.9 2.1-3.44 1.26-8.33 2.07-13.74 2.07s-10.3-.81-13.74-2.07a12.93 12.93 0 0 1-3.9-2.1c-.85-.73-1.14-1.36-1.14-1.9v-.04a5.5 5.5 0 0 0 0-.46v-4.42c1.16.9 2.63 1.65 4.39 2.28 3.63 1.29 8.4 2.07 13.67 2.14h.01l.68.02c.28 0 1.4-.05 1.9-.07h.05c.86-.03 1.59-.08 2.35-.11 1-.08 1.97-.19 2.9-.31.08-.01.25-.02.47-.06 1.07-.15 2.06-.36 3.02-.57l.41-.08c.93-.22 1.77-.47 2.57-.73.09-.03.27-.07.51-.16.31-.1.55-.22.83-.34.4-.16.82-.32 1.18-.48l.36-.16.28-.13c.78-.4 1.37-.88 1.98-1.35z" color="#000" paint-order="markers fill stroke"/>
</svg>
