<svg xmlns="http://www.w3.org/2000/svg" fill="#064789" viewBox="0 0 48 48">
  <path d="M24.08 2.95c-5.66 0-10.79.83-14.61 2.23q-2.88 1.04-4.7 2.57a5.5 5.5 0 0 0-1.79 3.01c-.06.62-.09 1.17-.09 1.52l-.13 7.87v.5c0 1.25.6 2.37 1.49 3.3a5.6 5.6 0 0 0-1.38 2.6c-.32.95-.26 8.1-.26 9.39v.51c.01 1.48.83 2.78 2.02 3.8a15 15 0 0 0 4.69 2.57c3.82 1.4 8.95 2.23 14.6 2.23 5.67 0 10.8-.83 14.62-2.23a15 15 0 0 0 4.68-2.57c1.2-1.02 2.02-2.33 2.02-3.81v-.49c-.15-1.3.08-8.57-.26-9.4a6 6 0 0 0-1.23-2.44 5 5 0 0 0 1.64-3.46v-.49c-.16-1.3.02-8.84-.27-9.4a6.3 6.3 0 0 0-2.78-3.84 20 20 0 0 0-5.92-2.4A57 57 0 0 0 24.1 2.96h-.01zm0 2.54c2.27.03 5.94.3 9.45.98L16.29 9.2l-2.96 7.09 17.58-2.8 2.91-6.97q1 .2 1.97.44c2.05.53 3.9 1.24 5.15 2.07 1.24.81 1.69 1.63 1.77 2.55 0 1.04-.43 1.45-1.2 2.14-.97.83-2.82 1.48-4.04 1.92-.76.27-1.71.58-2.6.8-1.1.28-2.17.45-3.44.64-1.9.29-4.02.41-6.19.46-.83.01-1.55.02-2.27 0-4.7-.11-9.05-.86-12.22-2a16 16 0 0 1-4-2.02c-.71-.53-1-.83-1.16-1.2a3 3 0 0 1-.16-.68c.01-.95.55-1.59 1-1.99.85-.73 2.2-1.47 3.9-2.1 3.44-1.26 8.34-2.07 13.75-2.07zm-.36 4.39q1.26 0 2.3.3 1.29.39 1.49 1 .2.6-.8 1.09-1 .48-2.63.55a9 9 0 0 1-2.9-.3q-1.29-.38-1.48-.98-.2-.61.8-1.1.99-.48 2.62-.55zM5.29 15.66c1.14.88 2.48 1.66 4.18 2.28 3.61 1.33 11.04 2.14 13.74 2.17a44 44 0 0 0 8.58-.51c1.36-.2 2.47-.36 3.69-.66a29 29 0 0 0 5.53-2.06c.69-.36 1.3-.7 1.85-1.12v4.39c-.37 2.58-3.1 3.77-5.04 4.5-3.44 1.25-8.33 2.07-13.74 2.07s-10.3-.82-13.74-2.07a13 13 0 0 1-3.9-2.1 3.1 3.1 0 0 1-1.15-2.4zm1.01 9.9q.84.5 1.83.93c3.91 1.76 9.46 2.78 15.8 2.78q3.27 0 6.2-.35l.19-.02.33-.04c3.03-.38 5.77-1 8.04-1.84q1.67-.6 3-1.37c.59.56.96 1.13 1 1.76l-.03.2v.01l-.04.12c-.02.11-.05.25-.1.34q-.11.22-.25.39a12 12 0 0 1-2.69 2.03l-.55.25c-.58.26-1.14.51-1.78.73l-.32.1-.15.04q-.58.19-1.18.34-.57.18-1.18.33l-.39.08q-1.35.3-2.83.54l-.45.05q-1.5.22-3.09.33c-1.4.08-2.54.14-3.76.14l-.64-.02c-4.39-.33-9.02-.78-12.86-2.15-1.65-.6-2.98-1.3-3.86-1.98s-1.26-1.3-1.31-1.66l-.06-.34q.06-.76 1.13-1.73zm36.41 5.85v5.03c0 .54-.3 1.17-1.14 1.9s-2.19 1.47-3.9 2.1c-3.44 1.26-8.33 2.07-13.74 2.07s-10.3-.81-13.74-2.07a13 13 0 0 1-3.9-2.1c-.85-.73-1.14-1.36-1.14-1.9v-4.92q1.75 1.34 4.39 2.28c3.63 1.29 8.4 2.07 13.67 2.14h.01l.68.02c.28 0 1.4-.05 1.9-.07h.05c.86-.03 1.59-.08 2.35-.11q1.5-.12 2.9-.31.13 0 .47-.06 1.6-.24 3.02-.57l.41-.08q1.38-.34 2.57-.73.14-.03.51-.16c.31-.1.55-.22.83-.34q.62-.24 1.18-.48l.36-.16.28-.13c.78-.4 1.37-.88 1.98-1.35" color="#000" paint-order="markers fill stroke"/>
</svg>
