<svg xmlns="http://www.w3.org/2000/svg" viewBox="0 0 103.909 39.883">
  <g paint-order="markers fill stroke">
    <g style="-inkscape-font-specification:&quot;Space Grotesk Bold&quot;">
      <path d="M72.01 48.596q-1.936 0-3.071-1.22-1.134-1.218-1.134-3.366 0-2.04 1.182-3.271 1.19-1.237 3.108-1.237 1.551 0 2.625.718l-.513 1.237q-1.032-.634-2.076-.634-1.219 0-1.93.881-.707.875-.707 2.354 0 1.533.682 2.371.688.84 1.955.84 1.11 0 2.203-.556l.217 1.28q-1.014.603-2.54.603zm6.168-.036q-.682 0-1.134-.157-.447-.163-.707-.513-.259-.35-.362-.833-.102-.483-.102-1.2v-6.464l1.58-.103v6.536q0 .893.212 1.213.211.314.82.314.303 0 .767-.067l.042 1.129q-.006 0-.15.03-.14.03-.272.048-.127.024-.326.043-.199.024-.368.024zm4.93.036q-1.599 0-2.492-.917-.887-.924-.887-2.547 0-1.581.839-2.516.839-.936 2.287-.942 1.37 0 2.124.857.76.857.76 2.275 0 .103-.006.332v.338h-4.41q.023.93.506 1.442.489.507 1.34.507 1.086 0 2.088-.567l.223 1.122q-.996.616-2.372.616zm-1.756-4.116h2.897q0-.808-.368-1.243-.368-.434-1.02-.434-.61 0-1.032.422-.416.422-.477 1.255zm7.398 4.116q-.923 0-1.496-.507-.567-.513-.567-1.472 0-1.032.676-1.527.676-.501 2.04-.634.187-.024.404-.048.217-.024.489-.048.271-.025.428-.043v-.35q0-.603-.278-.875-.277-.277-.844-.277-.81 0-1.998.452l-.199-.549q-.193-.53-.2-.543 1.172-.5 2.535-.5 1.34 0 1.95.585.61.579.61 1.882v4.327h-1.172q-.006-.024-.132-.404-.127-.38-.127-.405-.495.483-.972.713-.47.223-1.146.223zm.43-1.123q.548 0 .953-.26.41-.265.585-.639v-1.28q-.018 0-.32.025-.296.024-.32.024-.96.085-1.406.362-.446.278-.446.893 0 .423.247.652.248.223.706.223zm4.712.997v-6.633h1.273l.176.839q1.013-1.002 2.25-1.002 1.16 0 1.732.67.58.664.58 1.931v4.194h-1.587v-4q-.006-.803-.26-1.202-.253-.398-.911-.398-.513 0-.942.266-.422.259-.615.657-.115.471-.115 1.449v3.228zm10.012 0 3.252-8.848h1.78l3.205 8.847h-1.678l-.875-2.498h-3.096l-.88 2.498zm2.999-3.718h2.269q-1.086-3.482-1.117-3.597zm6.059 3.718v-6.633h1.58v6.632zm0-7.598V39.52h1.587v1.352zm3.234 7.598v-6.633h1.328l.205 1.014q.652-1.044 1.889-1.044.26 0 .422.024l-.024 1.322q-.241-.037-.5-.037-.876 0-1.31.465-.429.465-.429 1.292v3.596zM72.01 64.564q-1.936 0-3.071-1.219-1.134-1.219-1.134-3.367 0-2.04 1.182-3.27 1.19-1.238 3.108-1.238 1.551 0 2.625.718l-.513 1.237q-1.032-.633-2.076-.633-1.219 0-1.93.88-.707.876-.707 2.354 0 1.533.682 2.372.688.839 1.955.839 1.11 0 2.203-.555l.217 1.279q-1.014.603-2.54.603zm6.011-2.172q.658.839 1.943.839 1.286 0 1.937-.833.658-.839.658-2.366 0-1.544-.658-2.395-.651-.851-1.93-.851-1.286 0-1.95.857-.658.85-.658 2.39 0 1.52.658 2.359zm1.937 2.172q-1.997 0-3.156-1.207-1.152-1.213-1.152-3.343 0-2.142 1.158-3.343 1.159-1.2 3.156-1.2 1.998 0 3.15 1.206 1.153 1.201 1.153 3.343 0 2.118-1.159 3.331-1.158 1.213-3.15 1.213zm5.86-.126v-8.841h1.931l2.673 6.385 2.692-6.385h1.907v8.84h-1.509V60.07l.048-2.505-.223.664-2.263 5.606h-1.4l-2.215-5.636-.223-.664.054 2.559v4.345zm11.067 0v-8.865h2.945q1.044 0 1.787.271.742.266 1.17.87.435.603.435 1.514 0 .634-.163 1.128-.163.49-.537.894-.374.398-1.056.615-.676.217-1.636.217-.82 0-1.333-.048v3.404zm2.77-4.538q.501 0 .87-.097.373-.096.579-.247.21-.151.331-.375.127-.223.163-.428.043-.211.043-.47 0-.73-.471-1.111-.47-.38-1.328-.38h-1.345v3.096q.072.012 1.158.012zm3.162 4.538 3.253-8.847h1.78l3.205 8.847h-1.678l-.875-2.499h-3.096l-.88 2.499zm3-3.718h2.269q-1.087-3.482-1.117-3.596zm8.653 3.838q-1.599 0-2.866-.736l.398-1.297q.567.313 1.231.507.67.193 1.304.193.778 0 1.176-.332.399-.338.399-.966 0-.833-1.11-1.152-.08-.025-.441-.127l-.682-.205q-.314-.103-.453-.157-1.78-.628-1.78-2.342 0-1.2.85-1.852.858-.652 2.27-.652 1.6 0 2.758.658l-.495 1.195q-1.183-.531-2.197-.531-.73 0-1.104.26-.368.253-.392.85 0 .736.73.96.145.054.712.235l.736.235q1.213.398 1.732.99.525.591.525 1.647 0 1.262-.893 1.943-.893.676-2.408.676zm7.175 0q-1.599 0-2.866-.736l.398-1.297q.567.313 1.231.507.67.193 1.304.193.778 0 1.177-.332.398-.338.398-.966 0-.833-1.11-1.152-.08-.025-.441-.127l-.682-.205q-.314-.103-.453-.157-1.78-.628-1.78-2.342 0-1.2.851-1.852.857-.652 2.27-.652 1.598 0 2.757.658l-.495 1.195q-1.183-.531-2.197-.531-.73 0-1.104.26-.368.253-.392.85 0 .736.73.96.145.054.712.235l.736.235q1.213.398 1.732.99.525.591.525 1.647 0 1.262-.893 1.943-.893.676-2.408.676z" aria-label="Clean Air COMPASS" font-family="Oxygen" font-size="12.359" font-weight="700" style="-inkscape-font-specification:&quot;Oxygen Bold&quot;" transform="translate(-27.223 -34.852) scale(1.0495124)"/>
    </g>
    <path d="M20.344 0C14.98 0 10.123.784 6.5 2.11c-1.81.663-3.319 1.457-4.443 2.431A5.171 5.171 0 0 0 .356 7.397c-.061.588-.084 1.11-.084 1.442l-.127 7.45c0 .382-.002.351.005.473v.004c.002 1.181.559 2.245 1.406 3.133-.664.723-1.11 1.557-1.306 2.463-.306.901-.248 7.676-.248 8.89 0 .396 0 .353.008.487.005 1.398.783 2.633 1.904 3.604 1.125.973 2.633 1.766 4.444 2.429 3.622 1.327 8.48 2.111 13.843 2.111 5.364 0 10.22-.784 13.842-2.111 1.811-.663 3.319-1.456 4.444-2.43 1.124-.973 1.907-2.212 1.907-3.615l.007-.46v-.007c-.144-1.232.067-8.117-.248-8.898a5.634 5.634 0 0 0-1.166-2.315c.93-.917 1.55-2.035 1.55-3.285l.006-.459v-.007c-.152-1.226.012-8.368-.258-8.899-.35-1.498-1.301-2.756-2.64-3.637-1.554-1.021-3.512-1.735-5.602-2.275C27.863.404 23.157.042 20.362 0h-.018zm0 2.4c2.152.034 5.636.287 8.954.93l-16.333 2.6-2.804 6.715 16.66-2.653 2.758-6.606c.632.127 1.256.266 1.862.423 1.939.501 3.692 1.17 4.885 1.955 1.171.77 1.597 1.542 1.671 2.42-.002.986-.402 1.375-1.132 2.025-.925.791-2.676 1.408-3.828 1.82-.72.253-1.624.552-2.462.76-1.054.263-2.061.425-3.266.606-1.807.27-3.812.389-5.863.436-.788.01-1.468.022-2.153.003-4.456-.114-8.576-.82-11.58-1.898-1.617-.58-2.925-1.256-3.795-1.912-.667-.503-.932-.793-1.094-1.144a2.596 2.596 0 0 1-.15-.641c.014-.902.521-1.503.955-1.883.798-.69 2.071-1.397 3.697-1.992C10.578 3.172 15.218 2.4 20.344 2.4zm-.341 4.16c.802.004 1.53.103 2.187.295.809.237 1.276.55 1.403.935.127.386-.125.73-.756 1.034-.63.304-1.46.48-2.488.527-1.028.048-1.946-.047-2.754-.284s-1.276-.548-1.403-.934.126-.731.756-1.035c.631-.303 1.46-.479 2.488-.526.193-.01.382-.013.567-.012zM2.545 12.04c1.075.832 2.343 1.573 3.955 2.164 3.425 1.254 10.46 2.02 13.018 2.048 1.11.045 2.042.052 2.975.025 1.908-.068 3.432-.243 5.154-.501 1.295-.193 2.348-.34 3.498-.629 1.823-.494 3.593-1.12 5.24-1.95.657-.34 1.23-.666 1.758-1.064v4.156c-.35 2.449-2.933 3.579-4.781 4.266-3.252 1.191-7.892 1.963-13.018 1.963s-9.765-.772-13.017-1.963c-1.626-.595-2.9-1.301-3.698-1.992-1.057-.835-1.085-2.044-1.084-2.274v-4.25zm.955 9.37c.456.275.95.532 1.48.774 3.714 1.743 9.082 2.751 15.221 2.751 2.313 0 4.514-.143 6.56-.414 2.796-.357 5.321-.944 7.427-1.715 1.056-.387 2.01-.818 2.843-1.303.556.535.91 1.074.955 1.665v.002l-.036.2v.005c-.007.035-.026.073-.036.109a1.44 1.44 0 0 1-.094.322 2.252 2.252 0 0 1-.236.371v.002a3.815 3.815 0 0 1-.42.488l-.002.003a11.185 11.185 0 0 1-2.123 1.433c-.178.08-.384.169-.523.23l-.002.003c-.55.252-1.087.486-1.686.693-.047.017-.185.057-.31.094l-.135.04c-.36.118-.747.212-1.117.32-.371.106-.726.225-1.12.317-.047.011-.18.03-.368.073a37.22 37.22 0 0 1-2.686.508c-.066.01-.217.019-.422.047a45.05 45.05 0 0 1-2.93.318c-1.333.07-2.41.126-3.564.13h-.002c-.228-.004-.423-.018-.604-.022-4.16-.308-8.55-.733-12.188-2.034-1.562-.574-2.82-1.235-3.658-1.875-.836-.64-1.188-1.23-1.241-1.57l-.052-.324c.024-.47.4-1.035 1.069-1.64zm34.498 5.549H38v4.292l-.006.46v.015c0 .518-.28 1.11-1.078 1.8-.798.691-2.07 1.397-3.697 1.993-3.252 1.19-7.892 1.963-13.018 1.963s-9.765-.772-13.017-1.963c-1.627-.596-2.902-1.302-3.7-1.992-.797-.691-1.077-1.283-1.077-1.8v-.038a4.467 4.467 0 0 0-.008-.196l.001-.24V27.07c1.11.844 2.5 1.56 4.169 2.154 3.438 1.223 7.955 1.963 12.949 2.027l.017.002h.004c.25.011.43.023.635.022h.002c.265.007 1.329-.044 1.809-.062l.043-.002h.002c.806-.036 1.497-.076 2.218-.108a50.54 50.54 0 0 0 2.748-.297c.076-.01.234-.02.448-.05a39.085 39.085 0 0 0 2.857-.542c.057-.013.198-.031.396-.078a29.766 29.766 0 0 0 2.428-.691c.087-.029.261-.069.486-.146h.002c.292-.102.52-.215.784-.323.378-.154.781-.304 1.12-.46l.003-.003c.07-.032.218-.098.336-.148.094-.041.153-.062.27-.121.735-.373 1.29-.836 1.872-1.285z" color="#000"/>
  </g>
</svg>
